<?xml version="1.0" standalone="no"?>
<!DOCTYPE svg PUBLIC "-//W3C//DTD SVG 20010904//EN"
 "http://www.w3.org/TR/2001/REC-SVG-20010904/DTD/svg10.dtd">
<svg version="1.0" xmlns="http://www.w3.org/2000/svg"
 width="512.000000pt" height="512.000000pt" viewBox="0 0 512.000000 512.000000"
 preserveAspectRatio="xMidYMid meet">
<metadata>
Created by potrace 1.15, written by Peter Selinger 2001-2017
</metadata>
<g transform="translate(0.000000,512.000000) scale(0.100000,-0.100000)"
fill="#000000" stroke="none">
<path d="M610 2441 l0 -1321 275 0 275 0 0 510 0 511 152 -3 152 -3 314 -507
315 -508 309 0 309 0 -64 93 c-169 244 -707 1046 -707 1054 0 4 25 21 55 37
155 81 293 215 359 350 56 113 69 187 63 356 -8 239 -54 358 -192 495 -120
121 -253 183 -487 226 -103 19 -159 22 -620 26 l-508 5 0 -1321z m953 845
c214 -41 304 -148 295 -350 -12 -251 -160 -346 -538 -346 l-160 0 0 362 0 361
165 -7 c91 -3 198 -13 238 -20z"/>
<path d="M2790 3530 l0 -230 355 0 355 0 0 -1090 0 -1090 280 0 280 0 0 1090
0 1090 360 0 360 0 0 230 0 230 -995 0 -995 0 0 -230z"/>
</g>
</svg>
